<svg width="56" height="56" viewBox="0 0 56 56" fill="none" xmlns="http://www.w3.org/2000/svg">
<path opacity="0.4" d="M51.1468 39.0833C50.3768 45.29 45.2901 50.3767 39.0834 51.1467C35.3268 51.6133 31.8268 50.5867 29.0968 48.58C27.5334 47.4367 27.9068 45.01 29.7734 44.45C36.7968 42.3267 42.3267 36.7733 44.4734 29.75C45.0334 27.9067 47.4601 27.5333 48.6034 29.0733C50.5868 31.8267 51.6134 35.3267 51.1468 39.0833Z" fill="#2995d6"/>
<path d="M23.3101 4.66666C13.0201 4.66666 4.66675 13.02 4.66675 23.31C4.66675 33.6 13.0201 41.9533 23.3101 41.9533C33.6001 41.9533 41.9534 33.6 41.9534 23.31C41.9301 13.02 33.6001 4.66666 23.3101 4.66666ZM21.1167 20.6967L26.7401 22.6567C28.7701 23.38 29.7501 24.8033 29.7501 26.9967C29.7501 29.5167 27.7434 31.5933 25.2934 31.5933H25.0834V31.71C25.0834 32.6667 24.2901 33.46 23.3334 33.46C22.3767 33.46 21.5834 32.6667 21.5834 31.71V31.57C18.9934 31.4533 16.9167 29.2833 16.9167 26.5767C16.9167 25.62 17.7101 24.8267 18.6667 24.8267C19.6234 24.8267 20.4167 25.62 20.4167 26.5767C20.4167 27.4167 21.0234 28.0933 21.7701 28.0933H25.2701C25.8067 28.0933 26.2267 27.6033 26.2267 26.9967C26.2267 26.18 26.0867 26.1333 25.5501 25.9467L19.9267 23.9867C17.9201 23.2867 16.9167 21.8633 16.9167 19.6467C16.9167 17.1267 18.9234 15.05 21.3734 15.05H21.5834V14.9567C21.5834 14 22.3767 13.2067 23.3334 13.2067C24.2901 13.2067 25.0834 14 25.0834 14.9567V15.0967C27.6734 15.2133 29.7501 17.3833 29.7501 20.09C29.7501 21.0467 28.9567 21.84 28.0001 21.84C27.0434 21.84 26.2501 21.0467 26.2501 20.09C26.2501 19.25 25.6434 18.5733 24.8967 18.5733H21.3967C20.8601 18.5733 20.4401 19.0633 20.4401 19.67C20.4167 20.4633 20.5567 20.51 21.1167 20.6967Z" fill="#2995d6"/>
</svg>
