<svg width="56" height="56" viewBox="0 0 56 56" fill="none" xmlns="http://www.w3.org/2000/svg">
<path d="M28.0001 36.6333V36.89C28.0001 37.5433 27.4867 38.0567 26.8334 38.0567H5.83341C5.18008 38.0567 4.66675 37.5433 4.66675 36.89V36.6333C4.66675 32.5267 5.69341 31.5 9.84675 31.5H22.8201C26.9734 31.5 28.0001 32.5267 28.0001 36.6333Z" fill="#2995d6"/>
<path d="M5.83341 40.39C5.18008 40.39 4.66675 40.9033 4.66675 41.5567V43.89V46.2C4.66675 50.3067 5.69341 51.3333 9.84675 51.3333H22.8201C26.9734 51.3333 28.0001 50.3067 28.0001 46.2V43.89V41.5567C28.0001 40.9033 27.4867 40.39 26.8334 40.39H5.83341V40.39Z" fill="#2995d6"/>
<path d="M51.3333 35C51.3333 44.03 44.03 51.3333 35 51.3333L37.45 47.25" stroke="#2995d6" stroke-width="1.5" stroke-linecap="round" stroke-linejoin="round"/>
<path d="M4.66675 21C4.66675 11.97 11.9701 4.66669 21.0001 4.66669L18.5501 8.75002" stroke="#2995d6" stroke-width="1.5" stroke-linecap="round" stroke-linejoin="round"/>
<path opacity="0.4" d="M43.1667 25.6667C48.9657 25.6667 53.6667 20.9657 53.6667 15.1667C53.6667 9.3677 48.9657 4.66669 43.1667 4.66669C37.3678 4.66669 32.6667 9.3677 32.6667 15.1667C32.6667 20.9657 37.3678 25.6667 43.1667 25.6667Z" fill="#2995d6"/>
</svg>
