<svg width="56" height="56" viewBox="0 0 56 56" fill="none" xmlns="http://www.w3.org/2000/svg">
<path d="M50.05 31.8267V34.16C50.05 34.79 49.56 35.3033 48.9066 35.3267H45.5C44.2633 35.3267 43.1433 34.4167 43.05 33.2033C42.98 32.48 43.26 31.8033 43.7266 31.3367C44.1466 30.8933 44.73 30.66 45.36 30.66H48.8833C49.56 30.6833 50.05 31.1967 50.05 31.8267Z" fill="#2995d6"/>
<path d="M41.9766 29.61C40.8099 30.7533 40.2499 32.4567 40.7166 34.23C41.3232 36.4 43.4465 37.7767 45.6865 37.7767H47.7166C48.9999 37.7767 50.0499 38.8267 50.0499 40.11V40.5533C50.0499 45.3833 46.1066 49.3267 41.2766 49.3267H14.4899C9.65989 49.3267 5.71655 45.3833 5.71655 40.5533V24.85C5.71655 21.98 7.09322 19.4367 9.21655 17.85C10.6866 16.73 12.5066 16.0767 14.4899 16.0767H41.2766C46.1066 16.0767 50.0499 20.02 50.0499 24.85V25.8767C50.0499 27.16 48.9999 28.21 47.7166 28.21H45.3366C44.0299 28.21 42.8399 28.7233 41.9766 29.61Z" fill="#2995d6"/>
<path opacity="0.4" d="M37.8 11.2467C38.43 11.8767 37.8933 12.8567 37.0066 12.8567L19.0866 12.8333C18.06 12.8333 17.5233 11.5733 18.27 10.85L22.05 7.04667C25.2466 3.87334 30.4266 3.87334 33.6233 7.04667L37.7066 11.1767C37.73 11.2 37.7766 11.2233 37.8 11.2467Z" fill="#2995d6"/>
</svg>
